<svg 
 xmlns="http://www.w3.org/2000/svg"
 xmlns:xlink="http://www.w3.org/1999/xlink"
 width="31px" height="30px">
<path fill-rule="evenodd"  fill="rgb(255, 255, 255)"
 d="M25.663,4.325 C26.036,4.338 26.409,4.351 26.781,4.364 C27.090,4.364 27.497,4.336 27.740,4.404 C28.246,4.404 28.752,4.404 29.258,4.404 C29.661,4.549 29.972,4.858 30.016,5.365 C30.003,5.365 29.990,5.365 29.976,5.365 C29.963,5.444 29.950,5.525 29.936,5.604 C29.923,5.604 29.910,5.604 29.896,5.604 C29.896,5.645 29.896,5.685 29.896,5.725 C29.870,5.738 29.843,5.751 29.817,5.765 C29.817,5.791 29.817,5.818 29.817,5.845 C29.497,6.151 29.178,6.458 28.858,6.765 C27.926,7.711 26.994,8.659 26.063,9.605 C24.638,9.605 23.214,9.605 21.790,9.605 C21.470,9.938 21.151,10.272 20.831,10.605 C20.765,10.659 20.698,10.712 20.632,10.765 C20.354,11.150 20.003,11.435 19.673,11.765 C19.234,12.219 18.795,12.672 18.355,13.126 C18.090,13.318 17.865,13.537 17.636,13.766 C16.958,14.459 16.279,15.152 15.600,15.846 C15.560,15.846 15.520,15.846 15.480,15.846 C15.467,15.872 15.453,15.899 15.440,15.926 C15.374,15.939 15.307,15.952 15.240,15.966 C15.240,15.979 15.240,15.992 15.240,16.006 C15.009,16.080 14.590,15.919 14.482,15.846 C14.415,15.766 14.349,15.686 14.282,15.606 C14.255,15.592 14.229,15.579 14.202,15.566 C14.189,15.513 14.175,15.459 14.162,15.406 C14.149,15.406 14.135,15.406 14.122,15.406 C14.122,15.379 14.122,15.353 14.122,15.326 C14.109,15.326 14.096,15.326 14.082,15.326 C14.082,15.299 14.082,15.273 14.082,15.246 C14.069,15.246 14.056,15.246 14.042,15.246 C14.042,15.086 14.042,14.926 14.042,14.766 C14.056,14.766 14.069,14.766 14.082,14.766 C14.096,14.712 14.109,14.659 14.122,14.606 C14.135,14.606 14.149,14.606 14.162,14.606 C14.162,14.566 14.162,14.526 14.162,14.486 C14.189,14.473 14.215,14.459 14.242,14.446 C14.242,14.419 14.242,14.392 14.242,14.366 C14.255,14.366 14.269,14.366 14.282,14.366 C14.339,14.295 14.373,14.270 14.402,14.166 C14.428,14.166 14.455,14.166 14.482,14.166 C14.510,14.042 14.559,13.996 14.681,13.966 C14.681,13.939 14.681,13.912 14.681,13.885 C14.708,13.885 14.735,13.885 14.761,13.885 C14.761,13.859 14.761,13.832 14.761,13.806 C14.788,13.806 14.814,13.806 14.841,13.806 C14.841,13.779 14.841,13.752 14.841,13.726 C14.868,13.726 14.894,13.726 14.921,13.726 C14.921,13.699 14.921,13.672 14.921,13.646 C14.948,13.646 14.974,13.646 15.001,13.646 C15.030,13.535 15.012,13.556 15.121,13.526 C15.121,13.499 15.121,13.472 15.121,13.446 C15.147,13.446 15.174,13.446 15.200,13.446 C15.200,13.419 15.200,13.393 15.200,13.365 C15.227,13.365 15.254,13.365 15.280,13.365 C15.280,13.339 15.280,13.312 15.280,13.286 C15.307,13.286 15.334,13.286 15.360,13.286 C15.360,13.259 15.360,13.232 15.360,13.206 C15.387,13.206 15.413,13.206 15.440,13.206 C15.440,13.179 15.440,13.152 15.440,13.126 C15.467,13.126 15.493,13.126 15.520,13.126 C15.549,13.015 15.531,13.036 15.640,13.005 C15.640,12.979 15.640,12.952 15.640,12.926 C15.666,12.926 15.693,12.926 15.720,12.926 C15.720,12.899 15.720,12.872 15.720,12.846 C15.746,12.846 15.773,12.846 15.799,12.846 C15.799,12.819 15.799,12.792 15.799,12.765 C15.826,12.765 15.853,12.765 15.879,12.765 C15.879,12.739 15.879,12.712 15.879,12.685 C15.906,12.685 15.933,12.685 15.959,12.685 C15.959,12.659 15.959,12.632 15.959,12.605 C15.986,12.605 16.012,12.605 16.039,12.605 C16.068,12.495 16.050,12.516 16.159,12.486 C16.159,12.459 16.159,12.432 16.159,12.405 C16.185,12.405 16.212,12.405 16.239,12.405 C16.239,12.379 16.239,12.352 16.239,12.326 C16.265,12.326 16.292,12.326 16.319,12.326 C16.319,12.299 16.319,12.272 16.319,12.245 C16.345,12.245 16.372,12.245 16.398,12.245 C16.398,12.219 16.398,12.192 16.398,12.165 C16.425,12.165 16.452,12.165 16.478,12.165 C16.478,12.139 16.478,12.112 16.478,12.085 C16.505,12.085 16.532,12.085 16.558,12.085 C16.587,11.975 16.569,11.996 16.678,11.966 C16.678,11.939 16.678,11.912 16.678,11.885 C16.705,11.885 16.731,11.885 16.758,11.885 C16.758,11.859 16.758,11.832 16.758,11.806 C16.784,11.806 16.811,11.806 16.838,11.806 C16.890,11.608 17.254,11.348 17.397,11.205 C17.397,11.192 17.397,11.179 17.397,11.165 C17.836,10.738 18.275,10.312 18.715,9.885 C18.852,9.747 19.080,9.417 19.274,9.365 C19.274,9.339 19.274,9.312 19.274,9.285 C19.300,9.285 19.327,9.285 19.354,9.285 C19.354,9.258 19.354,9.232 19.354,9.205 C19.380,9.205 19.407,9.205 19.434,9.205 C19.434,9.179 19.434,9.152 19.434,9.125 C19.460,9.125 19.487,9.125 19.513,9.125 C19.542,9.015 19.524,9.035 19.633,9.005 C19.633,8.978 19.633,8.952 19.633,8.925 C19.660,8.925 19.686,8.925 19.713,8.925 C19.713,8.898 19.713,8.872 19.713,8.845 C19.740,8.845 19.766,8.845 19.793,8.845 C19.793,8.818 19.793,8.792 19.793,8.765 C19.820,8.765 19.846,8.765 19.873,8.765 C19.873,8.738 19.873,8.712 19.873,8.685 C19.899,8.685 19.926,8.685 19.953,8.685 C19.953,8.658 19.953,8.631 19.953,8.605 C20.063,8.576 20.042,8.594 20.072,8.485 C20.099,8.485 20.126,8.485 20.152,8.485 C20.152,8.458 20.152,8.432 20.152,8.405 C20.179,8.405 20.206,8.405 20.232,8.405 C20.232,8.378 20.232,8.352 20.232,8.325 C20.259,8.325 20.285,8.325 20.312,8.325 C20.312,8.298 20.312,8.272 20.312,8.245 C20.339,8.245 20.365,8.245 20.392,8.245 C20.471,7.802 20.432,7.193 20.432,6.685 C20.432,5.751 20.432,4.818 20.432,3.884 C20.529,3.828 20.562,3.734 20.632,3.685 C20.972,3.438 21.219,3.136 21.510,2.844 C22.189,2.178 22.868,1.511 23.547,0.844 C23.733,0.644 23.920,0.444 24.106,0.244 C24.133,0.244 24.159,0.244 24.186,0.244 C24.199,0.217 24.212,0.191 24.226,0.164 C24.252,0.164 24.279,0.164 24.306,0.164 C24.319,0.137 24.332,0.111 24.346,0.084 C24.413,0.042 24.727,-0.040 24.865,0.004 C24.865,0.017 24.865,0.031 24.865,0.044 C24.905,0.044 24.945,0.044 24.984,0.044 C24.984,0.057 24.984,0.071 24.984,0.084 C25.011,0.084 25.038,0.084 25.064,0.084 C25.078,0.111 25.091,0.137 25.104,0.164 C25.144,0.164 25.184,0.164 25.224,0.164 C25.224,0.177 25.224,0.191 25.224,0.204 C25.304,0.271 25.384,0.337 25.464,0.404 C25.464,0.431 25.464,0.458 25.464,0.484 C25.477,0.484 25.490,0.484 25.504,0.484 C25.504,0.511 25.504,0.538 25.504,0.564 C25.517,0.564 25.530,0.564 25.544,0.564 C25.544,0.604 25.544,0.644 25.544,0.684 C25.557,0.684 25.570,0.684 25.583,0.684 C25.583,0.911 25.583,1.137 25.583,1.364 C25.652,1.611 25.553,2.031 25.623,2.284 C25.637,2.284 25.650,2.284 25.663,2.284 C25.663,2.964 25.663,3.644 25.663,4.325 ZM18.315,6.085 C18.196,6.045 18.076,6.005 17.956,5.965 C17.956,5.951 17.956,5.938 17.956,5.925 C17.876,5.912 17.796,5.898 17.716,5.885 C17.716,5.871 17.716,5.858 17.716,5.845 C17.690,5.845 17.663,5.845 17.636,5.845 C17.636,5.832 17.636,5.818 17.636,5.805 C17.557,5.791 17.477,5.778 17.397,5.765 C17.397,5.751 17.397,5.738 17.397,5.725 C17.357,5.725 17.317,5.725 17.277,5.725 C17.277,5.711 17.277,5.698 17.277,5.685 C17.184,5.672 17.091,5.658 16.998,5.645 C16.998,5.631 16.998,5.618 16.998,5.604 C16.904,5.591 16.811,5.578 16.718,5.565 C16.718,5.551 16.718,5.538 16.718,5.525 C16.199,5.431 15.680,5.338 15.160,5.244 C14.987,5.244 14.814,5.244 14.641,5.244 C14.641,5.231 14.641,5.218 14.641,5.205 C14.434,5.147 13.519,5.201 13.363,5.244 C13.190,5.244 13.017,5.244 12.844,5.244 C12.844,5.258 12.844,5.271 12.844,5.285 C12.738,5.285 12.631,5.285 12.525,5.285 C12.525,5.298 12.525,5.311 12.525,5.324 C12.432,5.324 12.338,5.324 12.245,5.324 C12.245,5.338 12.245,5.351 12.245,5.365 C12.179,5.365 12.112,5.365 12.046,5.365 C12.046,5.378 12.046,5.391 12.046,5.405 C11.966,5.405 11.886,5.405 11.806,5.405 C11.806,5.418 11.806,5.431 11.806,5.444 C11.753,5.444 11.700,5.444 11.646,5.444 C11.646,5.458 11.646,5.471 11.646,5.485 C11.526,5.498 11.407,5.512 11.287,5.525 C10.808,5.685 10.328,5.845 9.849,6.005 C9.849,6.018 9.849,6.032 9.849,6.045 C9.796,6.058 9.743,6.071 9.689,6.085 C9.689,6.098 9.689,6.111 9.689,6.124 C9.663,6.124 9.636,6.124 9.610,6.124 C9.610,6.138 9.610,6.151 9.610,6.165 C9.570,6.165 9.530,6.165 9.490,6.165 C9.490,6.178 9.490,6.192 9.490,6.205 C9.410,6.231 9.330,6.258 9.250,6.285 C9.250,6.298 9.250,6.311 9.250,6.325 C9.224,6.325 9.197,6.325 9.170,6.325 C9.170,6.338 9.170,6.351 9.170,6.365 C9.144,6.365 9.117,6.365 9.090,6.365 C9.090,6.378 9.090,6.391 9.090,6.405 C9.011,6.432 8.931,6.458 8.851,6.485 C8.838,6.511 8.824,6.538 8.811,6.565 C8.731,6.592 8.651,6.618 8.571,6.645 C8.558,6.671 8.545,6.698 8.531,6.725 C8.478,6.738 8.425,6.751 8.372,6.765 C8.358,6.791 8.345,6.818 8.332,6.845 C8.278,6.858 8.225,6.871 8.172,6.885 C8.172,6.898 8.172,6.911 8.172,6.925 C8.132,6.938 8.092,6.952 8.052,6.965 C8.039,6.991 8.025,7.018 8.012,7.044 C7.986,7.044 7.959,7.044 7.932,7.044 C7.906,7.085 7.879,7.125 7.852,7.165 C7.826,7.165 7.799,7.165 7.773,7.165 C7.759,7.191 7.746,7.218 7.733,7.245 C7.706,7.245 7.679,7.245 7.653,7.245 C7.626,7.285 7.599,7.325 7.573,7.365 C7.546,7.365 7.520,7.365 7.493,7.365 C7.466,7.405 7.440,7.445 7.413,7.485 C7.387,7.485 7.360,7.485 7.333,7.485 C7.293,7.538 7.253,7.591 7.214,7.645 C7.187,7.645 7.160,7.645 7.134,7.645 C7.067,7.725 7.000,7.805 6.934,7.885 C6.907,7.885 6.881,7.885 6.854,7.885 C6.761,7.992 6.668,8.098 6.575,8.205 C6.348,8.418 6.122,8.632 5.896,8.845 C5.896,8.872 5.896,8.898 5.896,8.925 C5.816,8.992 5.736,9.058 5.656,9.125 C5.656,9.152 5.656,9.179 5.656,9.205 C5.603,9.245 5.550,9.285 5.496,9.325 C5.496,9.352 5.496,9.378 5.496,9.405 C5.456,9.432 5.416,9.459 5.376,9.485 C5.376,9.512 5.376,9.539 5.376,9.565 C5.336,9.592 5.297,9.619 5.257,9.645 C5.257,9.672 5.257,9.699 5.257,9.725 C5.230,9.739 5.203,9.752 5.177,9.765 C5.177,9.792 5.177,9.818 5.177,9.845 C5.137,9.872 5.097,9.899 5.057,9.925 C5.057,9.952 5.057,9.979 5.057,10.005 C5.030,10.018 5.004,10.032 4.977,10.045 C4.977,10.072 4.977,10.099 4.977,10.125 C4.951,10.139 4.924,10.152 4.897,10.165 C4.884,10.218 4.871,10.272 4.857,10.325 C4.831,10.338 4.804,10.352 4.777,10.365 C4.764,10.419 4.751,10.472 4.737,10.525 C4.711,10.538 4.684,10.552 4.658,10.565 C4.631,10.645 4.604,10.725 4.578,10.805 C4.551,10.819 4.525,10.832 4.498,10.845 C4.498,10.872 4.498,10.899 4.498,10.925 C4.485,10.925 4.471,10.925 4.458,10.925 C4.458,10.952 4.458,10.979 4.458,11.005 C4.445,11.005 4.431,11.005 4.418,11.005 C4.418,11.032 4.418,11.059 4.418,11.085 C4.405,11.085 4.391,11.085 4.378,11.085 C4.378,11.112 4.378,11.139 4.378,11.165 C4.365,11.165 4.351,11.165 4.338,11.165 C4.338,11.192 4.338,11.219 4.338,11.245 C4.325,11.245 4.312,11.245 4.298,11.245 C4.272,11.326 4.245,11.405 4.218,11.485 C4.205,11.485 4.192,11.485 4.178,11.485 C4.178,11.525 4.178,11.565 4.178,11.605 C4.165,11.605 4.152,11.605 4.138,11.605 C4.138,11.632 4.138,11.659 4.138,11.686 C4.125,11.686 4.112,11.686 4.099,11.686 C4.099,11.712 4.099,11.739 4.099,11.765 C4.085,11.765 4.072,11.765 4.059,11.765 C4.059,11.792 4.059,11.819 4.059,11.845 C4.045,11.845 4.032,11.845 4.019,11.845 C4.019,11.885 4.019,11.925 4.019,11.966 C4.005,11.966 3.992,11.966 3.979,11.966 C3.979,11.992 3.979,12.019 3.979,12.046 C3.965,12.046 3.952,12.046 3.939,12.046 C3.926,12.125 3.912,12.205 3.899,12.285 C3.886,12.285 3.872,12.285 3.859,12.285 C3.859,12.312 3.859,12.339 3.859,12.365 C3.846,12.365 3.832,12.365 3.819,12.365 C3.686,12.846 3.553,13.325 3.420,13.806 C3.393,14.046 3.366,14.286 3.340,14.526 C3.327,14.526 3.313,14.526 3.300,14.526 C3.300,14.632 3.300,14.739 3.300,14.846 C3.287,14.846 3.273,14.846 3.260,14.846 C3.260,15.019 3.260,15.193 3.260,15.366 C3.247,15.366 3.233,15.366 3.220,15.366 C3.162,15.573 3.216,16.491 3.260,16.646 C3.260,16.819 3.260,16.993 3.260,17.166 C3.273,17.166 3.287,17.166 3.300,17.166 C3.300,17.273 3.300,17.379 3.300,17.486 C3.313,17.486 3.327,17.486 3.340,17.486 C3.340,17.579 3.340,17.673 3.340,17.766 C3.353,17.766 3.366,17.766 3.380,17.766 C3.380,17.833 3.380,17.899 3.380,17.966 C3.393,17.966 3.406,17.966 3.420,17.966 C3.420,18.046 3.420,18.126 3.420,18.206 C3.433,18.206 3.446,18.206 3.460,18.206 C3.460,18.260 3.460,18.313 3.460,18.366 C3.473,18.366 3.486,18.366 3.500,18.366 C3.500,18.433 3.500,18.500 3.500,18.566 C3.513,18.566 3.526,18.566 3.539,18.566 C3.539,18.619 3.539,18.673 3.539,18.726 C3.553,18.726 3.566,18.726 3.579,18.726 C3.593,18.820 3.606,18.913 3.619,19.006 C3.633,19.006 3.646,19.006 3.659,19.006 C3.659,19.046 3.659,19.086 3.659,19.126 C3.673,19.126 3.686,19.126 3.699,19.126 C3.699,19.180 3.699,19.233 3.699,19.286 C3.712,19.286 3.726,19.286 3.739,19.286 C3.739,19.326 3.739,19.366 3.739,19.406 C3.752,19.406 3.766,19.406 3.779,19.406 C3.779,19.446 3.779,19.486 3.779,19.526 C3.792,19.526 3.806,19.526 3.819,19.526 C3.819,19.566 3.819,19.606 3.819,19.646 C3.832,19.646 3.846,19.646 3.859,19.646 C3.859,19.673 3.859,19.700 3.859,19.726 C3.872,19.726 3.886,19.726 3.899,19.726 C3.912,19.806 3.926,19.886 3.939,19.966 C3.952,19.966 3.965,19.966 3.979,19.966 C3.979,19.993 3.979,20.020 3.979,20.046 C3.992,20.046 4.005,20.046 4.019,20.046 C4.019,20.087 4.019,20.126 4.019,20.166 C4.032,20.166 4.045,20.166 4.059,20.166 C4.072,20.220 4.085,20.273 4.099,20.326 C4.112,20.326 4.125,20.326 4.138,20.326 C4.138,20.353 4.138,20.380 4.138,20.407 C4.152,20.407 4.165,20.407 4.178,20.407 C4.178,20.446 4.178,20.487 4.178,20.526 C4.192,20.526 4.205,20.526 4.218,20.526 C4.245,20.607 4.272,20.686 4.298,20.767 C4.312,20.767 4.325,20.767 4.338,20.767 C4.338,20.793 4.338,20.820 4.338,20.846 C4.351,20.846 4.365,20.846 4.378,20.846 C4.378,20.873 4.378,20.900 4.378,20.927 C4.391,20.927 4.405,20.927 4.418,20.927 C4.445,21.006 4.471,21.086 4.498,21.166 C4.525,21.180 4.551,21.193 4.578,21.206 C4.604,21.287 4.631,21.366 4.658,21.446 C4.684,21.460 4.711,21.473 4.737,21.487 C4.751,21.540 4.764,21.593 4.777,21.647 C4.804,21.660 4.831,21.673 4.857,21.687 C4.871,21.740 4.884,21.793 4.897,21.847 C4.924,21.860 4.951,21.873 4.977,21.886 C4.977,21.913 4.977,21.940 4.977,21.967 C4.990,21.967 5.004,21.967 5.017,21.967 C5.030,22.007 5.044,22.046 5.057,22.087 C5.084,22.100 5.110,22.113 5.137,22.127 C5.137,22.153 5.137,22.180 5.137,22.207 C5.177,22.233 5.217,22.260 5.257,22.287 C5.257,22.313 5.257,22.340 5.257,22.367 C5.297,22.393 5.336,22.420 5.376,22.447 C5.376,22.474 5.376,22.500 5.376,22.527 C5.416,22.553 5.456,22.580 5.496,22.607 C5.496,22.633 5.496,22.660 5.496,22.687 C5.550,22.727 5.603,22.767 5.656,22.807 C5.656,22.833 5.656,22.860 5.656,22.887 C5.736,22.953 5.816,23.020 5.896,23.087 C5.896,23.113 5.896,23.140 5.896,23.167 C6.122,23.380 6.348,23.593 6.575,23.807 C6.668,23.914 6.761,24.020 6.854,24.127 C6.881,24.127 6.907,24.127 6.934,24.127 C7.000,24.207 7.067,24.287 7.134,24.367 C7.160,24.367 7.187,24.367 7.214,24.367 C7.253,24.420 7.293,24.474 7.333,24.527 C7.360,24.527 7.387,24.527 7.413,24.527 C7.440,24.567 7.466,24.607 7.493,24.647 C7.520,24.647 7.546,24.647 7.573,24.647 C7.599,24.687 7.626,24.727 7.653,24.767 C7.679,24.767 7.706,24.767 7.733,24.767 C7.759,24.807 7.786,24.847 7.813,24.887 C7.839,24.887 7.866,24.887 7.892,24.887 C7.906,24.913 7.919,24.940 7.932,24.967 C7.959,24.967 7.986,24.967 8.012,24.967 C8.025,24.994 8.039,25.020 8.052,25.047 C8.092,25.060 8.132,25.074 8.172,25.087 C8.172,25.100 8.172,25.114 8.172,25.127 C8.225,25.140 8.278,25.154 8.332,25.167 C8.345,25.194 8.358,25.220 8.372,25.247 C8.425,25.260 8.478,25.274 8.531,25.287 C8.545,25.313 8.558,25.340 8.571,25.367 C8.651,25.393 8.731,25.420 8.811,25.447 C8.824,25.474 8.838,25.500 8.851,25.527 C8.877,25.527 8.904,25.527 8.931,25.527 C8.931,25.540 8.931,25.553 8.931,25.567 C8.957,25.567 8.984,25.567 9.011,25.567 C9.011,25.580 9.011,25.594 9.011,25.607 C9.037,25.607 9.064,25.607 9.090,25.607 C9.090,25.620 9.090,25.634 9.090,25.647 C9.117,25.647 9.144,25.647 9.170,25.647 C9.170,25.660 9.170,25.674 9.170,25.687 C9.197,25.687 9.224,25.687 9.250,25.687 C9.250,25.700 9.250,25.714 9.250,25.727 C9.277,25.727 9.303,25.727 9.330,25.727 C9.330,25.740 9.330,25.753 9.330,25.767 C9.410,25.794 9.490,25.820 9.570,25.847 C9.570,25.860 9.570,25.874 9.570,25.887 C9.636,25.900 9.703,25.913 9.769,25.927 C9.769,25.940 9.769,25.954 9.769,25.967 C9.796,25.967 9.823,25.967 9.849,25.967 C9.849,25.980 9.849,25.994 9.849,26.007 C9.889,26.007 9.929,26.007 9.969,26.007 C9.969,26.021 9.969,26.034 9.969,26.047 C9.996,26.047 10.022,26.047 10.049,26.047 C10.049,26.060 10.049,26.074 10.049,26.087 C10.129,26.100 10.209,26.113 10.288,26.127 C10.288,26.141 10.288,26.154 10.288,26.167 C10.315,26.167 10.342,26.167 10.368,26.167 C10.368,26.181 10.368,26.194 10.368,26.207 C10.488,26.234 10.608,26.260 10.728,26.287 C10.728,26.300 10.728,26.314 10.728,26.327 C10.781,26.327 10.834,26.327 10.887,26.327 C10.887,26.341 10.887,26.354 10.887,26.367 C10.927,26.367 10.967,26.367 11.007,26.367 C11.007,26.380 11.007,26.394 11.007,26.407 C11.100,26.421 11.194,26.434 11.287,26.447 C11.287,26.460 11.287,26.474 11.287,26.487 C11.340,26.487 11.393,26.487 11.447,26.487 C11.447,26.501 11.447,26.514 11.447,26.527 C11.566,26.541 11.686,26.554 11.806,26.567 C11.806,26.580 11.806,26.594 11.806,26.607 C11.886,26.607 11.966,26.607 12.046,26.607 C12.046,26.620 12.046,26.633 12.046,26.647 C12.112,26.647 12.179,26.647 12.245,26.647 C12.245,26.660 12.245,26.674 12.245,26.687 C12.338,26.687 12.432,26.687 12.525,26.687 C12.525,26.701 12.525,26.714 12.525,26.727 C12.804,26.740 13.084,26.754 13.363,26.767 C13.363,26.780 13.363,26.794 13.363,26.807 C13.571,26.865 14.486,26.811 14.641,26.767 C14.921,26.754 15.200,26.740 15.480,26.727 C15.480,26.714 15.480,26.701 15.480,26.687 C15.573,26.687 15.666,26.687 15.759,26.687 C15.759,26.674 15.759,26.660 15.759,26.647 C15.826,26.647 15.893,26.647 15.959,26.647 C15.959,26.633 15.959,26.620 15.959,26.607 C16.039,26.607 16.119,26.607 16.199,26.607 C16.199,26.594 16.199,26.580 16.199,26.567 C16.252,26.567 16.305,26.567 16.359,26.567 C16.359,26.554 16.359,26.541 16.359,26.527 C16.478,26.514 16.598,26.501 16.718,26.487 C16.718,26.474 16.718,26.460 16.718,26.447 C16.758,26.447 16.798,26.447 16.838,26.447 C16.838,26.434 16.838,26.421 16.838,26.407 C16.891,26.407 16.944,26.407 16.998,26.407 C16.998,26.394 16.998,26.380 16.998,26.367 C17.037,26.367 17.077,26.367 17.117,26.367 C17.117,26.354 17.117,26.341 17.117,26.327 C17.171,26.327 17.224,26.327 17.277,26.327 C17.277,26.314 17.277,26.300 17.277,26.287 C17.317,26.287 17.357,26.287 17.397,26.287 C17.397,26.274 17.397,26.260 17.397,26.247 C17.437,26.247 17.477,26.247 17.517,26.247 C17.517,26.234 17.517,26.220 17.517,26.207 C17.557,26.207 17.597,26.207 17.636,26.207 C17.636,26.194 17.636,26.181 17.636,26.167 C17.663,26.167 17.690,26.167 17.716,26.167 C17.716,26.154 17.716,26.141 17.716,26.127 C17.796,26.113 17.876,26.100 17.956,26.087 C17.956,26.074 17.956,26.060 17.956,26.047 C17.983,26.047 18.009,26.047 18.036,26.047 C18.036,26.034 18.036,26.021 18.036,26.007 C18.076,26.007 18.116,26.007 18.156,26.007 C18.156,25.994 18.156,25.980 18.156,25.967 C18.209,25.954 18.262,25.940 18.315,25.927 C18.315,25.913 18.315,25.900 18.315,25.887 C18.342,25.887 18.369,25.887 18.395,25.887 C18.395,25.874 18.395,25.860 18.395,25.847 C18.435,25.847 18.475,25.847 18.515,25.847 C18.515,25.833 18.515,25.820 18.515,25.807 C18.595,25.780 18.675,25.753 18.755,25.727 C18.755,25.714 18.755,25.700 18.755,25.687 C18.781,25.687 18.808,25.687 18.835,25.687 C18.835,25.674 18.835,25.660 18.835,25.647 C18.861,25.647 18.888,25.647 18.914,25.647 C18.914,25.634 18.914,25.620 18.914,25.607 C18.994,25.580 19.074,25.553 19.154,25.527 C19.167,25.500 19.181,25.474 19.194,25.447 C19.274,25.420 19.354,25.393 19.434,25.367 C19.447,25.340 19.460,25.313 19.473,25.287 C19.527,25.274 19.580,25.260 19.633,25.247 C19.646,25.220 19.660,25.194 19.673,25.167 C19.726,25.154 19.780,25.140 19.833,25.127 C19.846,25.100 19.860,25.074 19.873,25.047 C19.899,25.047 19.926,25.047 19.953,25.047 C19.953,25.033 19.953,25.020 19.953,25.007 C19.993,24.994 20.033,24.980 20.072,24.967 C20.086,24.940 20.099,24.913 20.112,24.887 C20.139,24.887 20.166,24.887 20.192,24.887 C20.206,24.860 20.219,24.834 20.232,24.807 C20.272,24.794 20.312,24.780 20.352,24.767 C20.379,24.727 20.405,24.687 20.432,24.647 C20.459,24.647 20.485,24.647 20.512,24.647 C20.538,24.607 20.565,24.567 20.592,24.527 C20.618,24.527 20.645,24.527 20.671,24.527 C20.711,24.474 20.751,24.420 20.791,24.367 C20.818,24.367 20.845,24.367 20.871,24.367 C20.938,24.287 21.004,24.207 21.071,24.127 C21.097,24.127 21.124,24.127 21.151,24.127 C21.284,23.980 21.417,23.833 21.550,23.686 C21.736,23.513 21.923,23.340 22.109,23.167 C22.109,23.140 22.109,23.113 22.109,23.087 C22.189,23.020 22.269,22.953 22.349,22.887 C22.349,22.860 22.349,22.833 22.349,22.807 C22.402,22.767 22.455,22.727 22.509,22.687 C22.509,22.660 22.509,22.633 22.509,22.607 C22.548,22.580 22.588,22.553 22.628,22.527 C22.628,22.500 22.628,22.474 22.628,22.447 C22.668,22.420 22.708,22.393 22.748,22.367 C22.761,22.327 22.775,22.287 22.788,22.246 C22.815,22.233 22.841,22.220 22.868,22.207 C22.868,22.180 22.868,22.153 22.868,22.127 C22.894,22.113 22.921,22.100 22.948,22.087 C22.961,22.046 22.974,22.007 22.988,21.967 C23.001,21.967 23.014,21.967 23.028,21.967 C23.028,21.940 23.028,21.913 23.028,21.886 C23.054,21.873 23.081,21.860 23.108,21.847 C23.121,21.793 23.134,21.740 23.148,21.687 C23.174,21.673 23.201,21.660 23.227,21.647 C23.241,21.593 23.254,21.540 23.267,21.487 C23.294,21.473 23.321,21.460 23.347,21.446 C23.374,21.366 23.400,21.287 23.427,21.206 C23.454,21.193 23.480,21.180 23.507,21.166 C23.507,21.140 23.507,21.113 23.507,21.086 C23.520,21.086 23.533,21.086 23.547,21.086 C23.547,21.060 23.547,21.033 23.547,21.006 C23.560,21.006 23.573,21.006 23.587,21.006 C23.587,20.980 23.587,20.953 23.587,20.927 C23.600,20.927 23.613,20.927 23.627,20.927 C23.627,20.900 23.627,20.873 23.627,20.846 C23.640,20.846 23.653,20.846 23.667,20.846 C23.667,20.820 23.667,20.793 23.667,20.767 C23.680,20.767 23.693,20.767 23.707,20.767 C23.707,20.740 23.707,20.713 23.707,20.686 C23.720,20.686 23.733,20.686 23.747,20.686 C23.773,20.607 23.800,20.526 23.826,20.446 C23.840,20.446 23.853,20.446 23.866,20.446 C23.866,20.407 23.866,20.366 23.866,20.326 C23.880,20.326 23.893,20.326 23.906,20.326 C23.920,20.273 23.933,20.220 23.946,20.166 C23.959,20.166 23.973,20.166 23.986,20.166 C24.146,19.687 24.306,19.206 24.465,18.726 C24.479,18.606 24.492,18.486 24.505,18.366 C24.519,18.366 24.532,18.366 24.545,18.366 C24.545,18.313 24.545,18.260 24.545,18.206 C24.558,18.206 24.572,18.206 24.585,18.206 C24.585,18.126 24.585,18.046 24.585,17.966 C24.598,17.966 24.612,17.966 24.625,17.966 C24.625,17.899 24.625,17.833 24.625,17.766 C24.638,17.766 24.652,17.766 24.665,17.766 C24.692,17.526 24.718,17.286 24.745,17.046 C24.745,16.913 24.745,16.779 24.745,16.646 C24.758,16.646 24.772,16.646 24.785,16.646 C24.843,16.438 24.788,15.521 24.745,15.366 C24.732,15.086 24.718,14.806 24.705,14.526 C24.692,14.526 24.678,14.526 24.665,14.526 C24.665,14.432 24.665,14.339 24.665,14.245 C24.652,14.245 24.638,14.245 24.625,14.245 C24.625,14.179 24.625,14.112 24.625,14.046 C24.612,14.046 24.598,14.046 24.585,14.046 C24.585,13.966 24.585,13.885 24.585,13.806 C24.572,13.806 24.558,13.806 24.545,13.806 C24.532,13.686 24.519,13.566 24.505,13.446 C24.492,13.446 24.479,13.446 24.465,13.446 C24.465,13.393 24.465,13.339 24.465,13.286 C24.452,13.286 24.439,13.286 24.425,13.286 C24.412,13.192 24.399,13.099 24.385,13.005 C24.372,13.005 24.359,13.005 24.346,13.005 C24.346,12.965 24.346,12.926 24.346,12.886 C24.332,12.886 24.319,12.886 24.306,12.886 C24.306,12.832 24.306,12.779 24.306,12.726 C24.292,12.726 24.279,12.726 24.266,12.726 C24.266,12.685 24.266,12.645 24.266,12.605 C24.252,12.605 24.239,12.605 24.226,12.605 C24.226,12.565 24.226,12.525 24.226,12.486 C24.212,12.486 24.199,12.486 24.186,12.486 C24.186,12.445 24.186,12.405 24.186,12.365 C24.172,12.365 24.159,12.365 24.146,12.365 C24.146,12.339 24.146,12.312 24.146,12.285 C24.133,12.285 24.119,12.285 24.106,12.285 C24.093,12.205 24.079,12.125 24.066,12.046 C24.053,12.046 24.039,12.046 24.026,12.046 C23.986,11.925 23.946,11.806 23.906,11.686 C24.736,11.689 25.823,11.779 26.462,11.565 C26.635,11.539 26.808,11.512 26.981,11.485 C26.981,11.472 26.981,11.459 26.981,11.446 C27.021,11.432 27.061,11.419 27.101,11.405 C27.101,11.392 27.101,11.378 27.101,11.365 C27.179,11.346 27.154,11.389 27.181,11.405 C27.318,11.530 27.306,11.813 27.381,12.005 C27.558,12.461 27.633,13.032 27.780,13.526 C27.793,13.699 27.806,13.872 27.820,14.046 C27.833,14.046 27.846,14.046 27.860,14.046 C27.860,14.139 27.860,14.232 27.860,14.326 C27.873,14.326 27.886,14.326 27.900,14.326 C27.900,14.459 27.900,14.592 27.900,14.726 C27.913,14.726 27.926,14.726 27.940,14.726 C27.940,14.899 27.940,15.072 27.940,15.246 C28.024,15.554 28.027,16.458 27.940,16.766 C27.940,16.940 27.940,17.113 27.940,17.286 C27.926,17.286 27.913,17.286 27.900,17.286 C27.900,17.419 27.900,17.553 27.900,17.686 C27.886,17.686 27.873,17.686 27.860,17.686 C27.860,17.779 27.860,17.873 27.860,17.966 C27.846,17.966 27.833,17.966 27.820,17.966 C27.820,18.059 27.820,18.153 27.820,18.246 C27.764,18.434 27.717,18.704 27.660,18.886 C27.660,18.953 27.660,19.019 27.660,19.086 C27.647,19.086 27.633,19.086 27.620,19.086 C27.620,19.140 27.620,19.193 27.620,19.246 C27.607,19.246 27.594,19.246 27.580,19.246 C27.580,19.300 27.580,19.353 27.580,19.406 C27.567,19.406 27.554,19.406 27.540,19.406 C27.540,19.459 27.540,19.513 27.540,19.566 C27.527,19.566 27.514,19.566 27.500,19.566 C27.500,19.619 27.500,19.673 27.500,19.726 C27.487,19.726 27.474,19.726 27.460,19.726 C27.460,19.779 27.460,19.833 27.460,19.886 C27.447,19.886 27.434,19.886 27.420,19.886 C27.420,19.926 27.420,19.966 27.420,20.006 C27.407,20.006 27.394,20.006 27.381,20.006 C27.381,20.046 27.381,20.087 27.381,20.126 C27.367,20.126 27.354,20.126 27.341,20.126 C27.341,20.166 27.341,20.206 27.341,20.247 C27.327,20.247 27.314,20.247 27.301,20.247 C27.287,20.340 27.274,20.433 27.261,20.526 C27.247,20.526 27.234,20.526 27.221,20.526 C27.221,20.553 27.221,20.580 27.221,20.607 C27.207,20.607 27.194,20.607 27.181,20.607 C27.154,20.726 27.128,20.846 27.101,20.967 C27.088,20.967 27.074,20.967 27.061,20.967 C27.061,20.993 27.061,21.020 27.061,21.047 C27.048,21.047 27.034,21.047 27.021,21.047 C27.021,21.086 27.021,21.127 27.021,21.166 C27.008,21.166 26.995,21.166 26.981,21.166 C26.968,21.233 26.955,21.300 26.941,21.366 C26.928,21.366 26.915,21.366 26.901,21.366 C26.901,21.393 26.901,21.420 26.901,21.446 C26.888,21.446 26.875,21.446 26.861,21.446 C26.861,21.487 26.861,21.526 26.861,21.567 C26.848,21.567 26.835,21.567 26.821,21.567 C26.795,21.647 26.768,21.727 26.742,21.806 C26.728,21.806 26.715,21.806 26.702,21.806 C26.702,21.833 26.702,21.860 26.702,21.886 C26.688,21.886 26.675,21.886 26.662,21.886 C26.662,21.927 26.662,21.967 26.662,22.007 C26.648,22.007 26.635,22.007 26.622,22.007 C26.595,22.087 26.569,22.166 26.542,22.246 C26.529,22.246 26.515,22.246 26.502,22.246 C26.502,22.273 26.502,22.300 26.502,22.327 C26.489,22.327 26.475,22.327 26.462,22.327 C26.435,22.406 26.409,22.487 26.382,22.567 C26.356,22.580 26.329,22.593 26.302,22.607 C26.302,22.633 26.302,22.660 26.302,22.687 C26.289,22.687 26.276,22.687 26.262,22.687 C26.262,22.713 26.262,22.740 26.262,22.767 C26.249,22.767 26.236,22.767 26.222,22.767 C26.222,22.793 26.222,22.820 26.222,22.847 C26.209,22.847 26.196,22.847 26.182,22.847 C26.182,22.874 26.182,22.900 26.182,22.927 C26.156,22.940 26.129,22.953 26.103,22.966 C26.076,23.047 26.049,23.127 26.023,23.207 C25.996,23.220 25.970,23.233 25.943,23.247 C25.943,23.273 25.943,23.300 25.943,23.326 C25.916,23.340 25.890,23.353 25.863,23.367 C25.850,23.420 25.836,23.473 25.823,23.527 C25.796,23.540 25.770,23.553 25.743,23.567 C25.743,23.593 25.743,23.620 25.743,23.647 C25.717,23.660 25.690,23.673 25.663,23.686 C25.663,23.713 25.663,23.740 25.663,23.767 C25.637,23.780 25.610,23.793 25.583,23.807 C25.583,23.833 25.583,23.860 25.583,23.887 C25.570,23.887 25.557,23.887 25.544,23.887 C25.530,23.927 25.517,23.967 25.504,24.007 C25.477,24.020 25.450,24.034 25.424,24.047 C25.424,24.074 25.424,24.100 25.424,24.127 C25.384,24.154 25.344,24.180 25.304,24.207 C25.304,24.233 25.304,24.260 25.304,24.287 C25.264,24.314 25.224,24.340 25.184,24.367 C25.184,24.393 25.184,24.420 25.184,24.447 C25.144,24.474 25.104,24.500 25.064,24.527 C25.064,24.554 25.064,24.580 25.064,24.607 C25.011,24.647 24.958,24.687 24.905,24.727 C24.905,24.753 24.905,24.780 24.905,24.807 C24.851,24.847 24.798,24.887 24.745,24.927 C24.427,25.369 24.081,25.672 23.707,26.047 C23.573,26.194 23.440,26.341 23.307,26.487 C23.281,26.487 23.254,26.487 23.227,26.487 C23.161,26.567 23.094,26.647 23.028,26.727 C23.001,26.727 22.974,26.727 22.948,26.727 C22.895,26.794 22.841,26.861 22.788,26.927 C22.761,26.927 22.735,26.927 22.708,26.927 C22.668,26.980 22.628,27.034 22.588,27.087 C22.562,27.087 22.535,27.087 22.509,27.087 C22.482,27.127 22.455,27.167 22.429,27.207 C22.402,27.207 22.375,27.207 22.349,27.207 C22.322,27.247 22.295,27.287 22.269,27.327 C22.242,27.327 22.216,27.327 22.189,27.327 C22.162,27.367 22.136,27.407 22.109,27.447 C22.083,27.447 22.056,27.447 22.029,27.447 C22.016,27.474 22.003,27.500 21.989,27.527 C21.949,27.540 21.909,27.554 21.870,27.567 C21.870,27.581 21.870,27.594 21.870,27.607 C21.843,27.607 21.816,27.607 21.790,27.607 C21.776,27.634 21.763,27.660 21.750,27.687 C21.723,27.687 21.696,27.687 21.670,27.687 C21.657,27.714 21.643,27.740 21.630,27.767 C21.603,27.767 21.577,27.767 21.550,27.767 C21.537,27.794 21.523,27.820 21.510,27.847 C21.457,27.861 21.404,27.874 21.350,27.887 C21.337,27.914 21.324,27.941 21.310,27.968 C21.270,27.981 21.231,27.994 21.191,28.007 C21.191,28.021 21.191,28.034 21.191,28.047 C21.164,28.047 21.137,28.047 21.111,28.047 C21.111,28.061 21.111,28.074 21.111,28.087 C21.084,28.087 21.058,28.087 21.031,28.087 C21.031,28.101 21.031,28.114 21.031,28.128 C21.004,28.128 20.978,28.128 20.951,28.128 C20.938,28.154 20.924,28.180 20.911,28.207 C20.885,28.207 20.858,28.207 20.831,28.207 C20.831,28.221 20.831,28.234 20.831,28.248 C20.805,28.248 20.778,28.248 20.751,28.248 C20.751,28.261 20.751,28.274 20.751,28.287 C20.725,28.287 20.698,28.287 20.671,28.287 C20.671,28.301 20.671,28.314 20.671,28.327 C20.645,28.327 20.618,28.327 20.592,28.327 C20.578,28.354 20.565,28.381 20.552,28.407 C20.472,28.434 20.392,28.461 20.312,28.488 C20.312,28.501 20.312,28.514 20.312,28.527 C20.285,28.527 20.259,28.527 20.232,28.527 C20.232,28.540 20.232,28.554 20.232,28.567 C20.152,28.594 20.072,28.621 19.993,28.647 C19.993,28.661 19.993,28.674 19.993,28.687 C19.953,28.687 19.913,28.687 19.873,28.687 C19.873,28.701 19.873,28.714 19.873,28.727 C19.846,28.727 19.820,28.727 19.793,28.727 C19.793,28.741 19.793,28.754 19.793,28.768 C19.713,28.794 19.633,28.821 19.553,28.848 C19.553,28.861 19.553,28.874 19.553,28.887 C19.513,28.887 19.473,28.887 19.434,28.887 C19.434,28.901 19.434,28.914 19.434,28.927 C19.407,28.927 19.380,28.927 19.354,28.927 C19.354,28.941 19.354,28.954 19.354,28.967 C19.314,28.967 19.274,28.967 19.234,28.967 C19.234,28.980 19.234,28.994 19.234,29.007 C19.207,29.007 19.181,29.007 19.154,29.007 C19.154,29.021 19.154,29.034 19.154,29.047 C19.114,29.047 19.074,29.047 19.034,29.047 C19.034,29.061 19.034,29.074 19.034,29.087 C19.008,29.087 18.981,29.087 18.954,29.087 C18.954,29.101 18.954,29.114 18.954,29.127 C18.835,29.154 18.715,29.181 18.595,29.208 C18.595,29.221 18.595,29.234 18.595,29.247 C18.568,29.247 18.542,29.247 18.515,29.247 C18.515,29.261 18.515,29.274 18.515,29.288 C18.422,29.301 18.329,29.314 18.236,29.327 C18.236,29.341 18.236,29.354 18.236,29.367 C18.196,29.367 18.156,29.367 18.116,29.367 C18.116,29.381 18.116,29.394 18.116,29.407 C18.076,29.407 18.036,29.407 17.996,29.407 C17.996,29.421 17.996,29.434 17.996,29.447 C17.956,29.447 17.916,29.447 17.876,29.447 C17.876,29.461 17.876,29.474 17.876,29.487 C17.823,29.487 17.770,29.487 17.716,29.487 C17.716,29.501 17.716,29.514 17.716,29.527 C17.663,29.527 17.610,29.527 17.557,29.527 C17.557,29.541 17.557,29.554 17.557,29.567 C17.503,29.567 17.450,29.567 17.397,29.567 C17.397,29.581 17.397,29.594 17.397,29.607 C17.344,29.607 17.290,29.607 17.237,29.607 C17.237,29.621 17.237,29.634 17.237,29.647 C17.184,29.647 17.131,29.647 17.077,29.647 C17.077,29.661 17.077,29.674 17.077,29.688 C17.011,29.688 16.944,29.688 16.878,29.688 C16.878,29.701 16.878,29.714 16.878,29.727 C16.811,29.727 16.745,29.727 16.678,29.727 C16.678,29.741 16.678,29.754 16.678,29.767 C16.611,29.767 16.545,29.767 16.478,29.767 C16.478,29.780 16.478,29.794 16.478,29.807 C16.398,29.807 16.319,29.807 16.239,29.807 C16.239,29.821 16.239,29.834 16.239,29.848 C16.052,29.861 15.866,29.874 15.680,29.887 C15.680,29.901 15.680,29.914 15.680,29.927 C15.147,29.954 14.615,29.981 14.082,30.008 C13.616,29.994 13.150,29.981 12.685,29.968 C12.685,29.954 12.685,29.941 12.685,29.927 C12.565,29.927 12.445,29.927 12.325,29.927 C12.325,29.914 12.325,29.901 12.325,29.887 C12.219,29.887 12.112,29.887 12.006,29.887 C11.380,29.754 10.754,29.621 10.129,29.487 C9.178,29.145 8.205,28.826 7.413,28.327 C7.387,28.327 7.360,28.327 7.333,28.327 C7.333,28.314 7.333,28.301 7.333,28.287 C7.307,28.287 7.280,28.287 7.253,28.287 C7.253,28.274 7.253,28.261 7.253,28.248 C7.227,28.248 7.200,28.248 7.174,28.248 C7.174,28.234 7.174,28.221 7.174,28.207 C7.147,28.207 7.120,28.207 7.094,28.207 C7.080,28.180 7.067,28.154 7.054,28.128 C6.974,28.101 6.894,28.074 6.814,28.047 C6.814,28.034 6.814,28.021 6.814,28.007 C6.774,27.994 6.734,27.981 6.694,27.968 C6.681,27.941 6.668,27.914 6.654,27.887 C6.601,27.874 6.548,27.861 6.495,27.847 C6.495,27.834 6.495,27.820 6.495,27.807 C6.455,27.794 6.415,27.781 6.375,27.767 C6.362,27.740 6.348,27.714 6.335,27.687 C6.308,27.687 6.282,27.687 6.255,27.687 C6.242,27.660 6.228,27.634 6.215,27.607 C6.189,27.607 6.162,27.607 6.135,27.607 C6.135,27.594 6.135,27.581 6.135,27.567 C6.095,27.554 6.055,27.540 6.015,27.527 C6.002,27.500 5.989,27.474 5.975,27.447 C5.949,27.447 5.922,27.447 5.896,27.447 C5.869,27.407 5.842,27.367 5.816,27.327 C5.789,27.327 5.763,27.327 5.736,27.327 C5.709,27.287 5.683,27.247 5.656,27.207 C5.629,27.207 5.603,27.207 5.576,27.207 C5.550,27.167 5.523,27.127 5.496,27.087 C5.470,27.087 5.443,27.087 5.416,27.087 C5.376,27.034 5.336,26.980 5.297,26.927 C5.270,26.927 5.243,26.927 5.217,26.927 C5.190,26.887 5.163,26.847 5.137,26.807 C5.124,26.807 5.110,26.807 5.097,26.807 C5.084,26.780 5.070,26.754 5.057,26.727 C5.030,26.727 5.004,26.727 4.977,26.727 C4.911,26.647 4.844,26.567 4.777,26.487 C4.751,26.487 4.724,26.487 4.698,26.487 C4.538,26.314 4.378,26.141 4.218,25.967 C3.992,25.753 3.766,25.540 3.539,25.327 C3.539,25.300 3.539,25.274 3.539,25.247 C3.460,25.180 3.380,25.114 3.300,25.047 C3.300,25.020 3.300,24.994 3.300,24.967 C3.233,24.913 3.167,24.860 3.100,24.807 C3.100,24.780 3.100,24.753 3.100,24.727 C3.047,24.687 2.994,24.647 2.940,24.607 C2.940,24.580 2.940,24.554 2.940,24.527 C2.901,24.500 2.861,24.474 2.821,24.447 C2.821,24.420 2.821,24.393 2.821,24.367 C2.781,24.340 2.741,24.314 2.701,24.287 C2.701,24.260 2.701,24.233 2.701,24.207 C2.661,24.180 2.621,24.154 2.581,24.127 C2.581,24.100 2.581,24.074 2.581,24.047 C2.554,24.034 2.528,24.020 2.501,24.007 C2.488,23.967 2.475,23.927 2.461,23.887 C2.448,23.887 2.435,23.887 2.421,23.887 C2.421,23.860 2.421,23.833 2.421,23.807 C2.395,23.793 2.368,23.780 2.341,23.767 C2.341,23.740 2.341,23.713 2.341,23.686 C2.315,23.673 2.288,23.660 2.262,23.647 C2.262,23.620 2.262,23.593 2.262,23.567 C2.235,23.553 2.208,23.540 2.182,23.527 C2.168,23.473 2.155,23.420 2.142,23.367 C2.115,23.353 2.088,23.340 2.062,23.326 C2.049,23.287 2.035,23.247 2.022,23.207 C2.009,23.207 1.995,23.207 1.982,23.207 C1.955,23.127 1.929,23.047 1.902,22.966 C1.876,22.953 1.849,22.940 1.822,22.927 C1.822,22.900 1.822,22.874 1.822,22.847 C1.809,22.847 1.796,22.847 1.782,22.847 C1.782,22.820 1.782,22.793 1.782,22.767 C1.769,22.767 1.756,22.767 1.742,22.767 C1.742,22.740 1.742,22.713 1.742,22.687 C1.729,22.687 1.716,22.687 1.702,22.687 C1.702,22.660 1.702,22.633 1.702,22.607 C1.206,21.814 0.883,20.839 0.544,19.886 C0.531,19.779 0.518,19.673 0.504,19.566 C0.491,19.566 0.478,19.566 0.464,19.566 C0.464,19.513 0.464,19.459 0.464,19.406 C0.451,19.406 0.438,19.406 0.425,19.406 C0.425,19.353 0.425,19.300 0.425,19.246 C0.411,19.246 0.398,19.246 0.385,19.246 C0.385,19.193 0.385,19.140 0.385,19.086 C0.371,19.086 0.358,19.086 0.345,19.086 C0.345,19.019 0.345,18.953 0.345,18.886 C0.331,18.886 0.318,18.886 0.305,18.886 C0.291,18.753 0.278,18.619 0.265,18.486 C0.252,18.486 0.238,18.486 0.225,18.486 C0.225,18.406 0.225,18.326 0.225,18.246 C0.212,18.246 0.198,18.246 0.185,18.246 C0.185,18.153 0.185,18.059 0.185,17.966 C0.172,17.966 0.158,17.966 0.145,17.966 C0.132,17.739 0.118,17.513 0.105,17.286 C0.092,17.286 0.078,17.286 0.065,17.286 C0.065,17.113 0.065,16.940 0.065,16.766 C-0.020,16.457 -0.022,15.554 0.065,15.246 C0.065,15.072 0.065,14.899 0.065,14.726 C0.078,14.726 0.092,14.726 0.105,14.726 C0.118,14.499 0.132,14.272 0.145,14.046 C0.158,14.046 0.172,14.046 0.185,14.046 C0.185,13.953 0.185,13.859 0.185,13.766 C0.240,13.577 0.288,13.308 0.345,13.126 C0.345,13.059 0.345,12.992 0.345,12.926 C0.358,12.926 0.371,12.926 0.385,12.926 C0.385,12.872 0.385,12.819 0.385,12.765 C0.398,12.765 0.411,12.765 0.425,12.765 C0.425,12.712 0.425,12.659 0.425,12.605 C0.438,12.605 0.451,12.605 0.464,12.605 C0.464,12.552 0.464,12.499 0.464,12.445 C0.478,12.445 0.491,12.445 0.504,12.445 C0.504,12.392 0.504,12.339 0.504,12.285 C0.518,12.285 0.531,12.285 0.544,12.285 C0.544,12.232 0.544,12.178 0.544,12.125 C0.558,12.125 0.571,12.125 0.584,12.125 C0.584,12.085 0.584,12.045 0.584,12.005 C0.598,12.005 0.611,12.005 0.624,12.005 C0.624,11.966 0.624,11.925 0.624,11.885 C0.638,11.885 0.651,11.885 0.664,11.885 C0.664,11.845 0.664,11.806 0.664,11.765 C0.678,11.765 0.691,11.765 0.704,11.765 C0.704,11.712 0.704,11.659 0.704,11.605 C0.717,11.605 0.731,11.605 0.744,11.605 C0.744,11.565 0.744,11.525 0.744,11.485 C0.757,11.485 0.771,11.485 0.784,11.485 C0.784,11.459 0.784,11.432 0.784,11.405 C0.797,11.405 0.811,11.405 0.824,11.405 C0.851,11.285 0.877,11.165 0.904,11.045 C0.917,11.045 0.930,11.045 0.944,11.045 C0.944,11.018 0.944,10.992 0.944,10.965 C0.957,10.965 0.970,10.965 0.984,10.965 C0.984,10.925 0.984,10.885 0.984,10.845 C0.997,10.845 1.010,10.845 1.024,10.845 C1.024,10.819 1.024,10.792 1.024,10.765 C1.037,10.765 1.050,10.765 1.064,10.765 C1.064,10.725 1.064,10.685 1.064,10.645 C1.077,10.645 1.090,10.645 1.103,10.645 C1.103,10.619 1.103,10.592 1.103,10.565 C1.117,10.565 1.130,10.565 1.143,10.565 C1.143,10.525 1.143,10.485 1.143,10.445 C1.157,10.445 1.170,10.445 1.183,10.445 C1.210,10.365 1.237,10.285 1.263,10.205 C1.277,10.205 1.290,10.205 1.303,10.205 C1.303,10.178 1.303,10.152 1.303,10.125 C1.316,10.125 1.330,10.125 1.343,10.125 C1.343,10.085 1.343,10.045 1.343,10.005 C1.356,10.005 1.370,10.005 1.383,10.005 C1.410,9.925 1.436,9.845 1.463,9.765 C1.476,9.765 1.489,9.765 1.503,9.765 C1.503,9.739 1.503,9.712 1.503,9.685 C1.516,9.685 1.529,9.685 1.543,9.685 C1.569,9.605 1.596,9.525 1.623,9.445 C1.649,9.432 1.676,9.418 1.702,9.405 C1.702,9.378 1.702,9.352 1.702,9.325 C1.716,9.325 1.729,9.325 1.742,9.325 C1.742,9.298 1.742,9.272 1.742,9.245 C1.756,9.245 1.769,9.245 1.782,9.245 C1.782,9.218 1.782,9.192 1.782,9.165 C1.796,9.165 1.809,9.165 1.822,9.165 C1.822,9.138 1.822,9.111 1.822,9.085 C1.849,9.072 1.876,9.058 1.902,9.045 C1.929,8.965 1.955,8.885 1.982,8.805 C1.995,8.805 2.009,8.805 2.022,8.805 C2.035,8.765 2.049,8.725 2.062,8.685 C2.088,8.672 2.115,8.658 2.142,8.645 C2.155,8.591 2.168,8.539 2.182,8.485 C2.195,8.485 2.208,8.485 2.222,8.485 C2.235,8.445 2.248,8.405 2.262,8.365 C2.288,8.352 2.315,8.338 2.341,8.325 C2.341,8.298 2.341,8.272 2.341,8.245 C2.355,8.245 2.368,8.245 2.381,8.245 C2.395,8.205 2.408,8.165 2.421,8.125 C2.448,8.111 2.475,8.098 2.501,8.085 C2.501,8.058 2.501,8.032 2.501,8.005 C2.541,7.978 2.581,7.951 2.621,7.925 C2.621,7.898 2.621,7.871 2.621,7.845 C2.648,7.832 2.674,7.819 2.701,7.805 C2.701,7.778 2.701,7.752 2.701,7.725 C2.741,7.698 2.781,7.672 2.821,7.645 C2.821,7.618 2.821,7.591 2.821,7.565 C2.861,7.538 2.901,7.511 2.940,7.485 C2.940,7.458 2.940,7.431 2.940,7.405 C2.994,7.365 3.047,7.325 3.100,7.285 C3.100,7.258 3.100,7.231 3.100,7.205 C3.140,7.178 3.180,7.151 3.220,7.125 C3.220,7.112 3.220,7.098 3.220,7.085 C3.247,7.071 3.273,7.058 3.300,7.044 C3.300,7.018 3.300,6.991 3.300,6.965 C3.380,6.898 3.460,6.831 3.539,6.765 C3.539,6.738 3.539,6.711 3.539,6.685 C3.739,6.498 3.939,6.311 4.138,6.124 C4.325,5.925 4.511,5.725 4.698,5.525 C4.724,5.525 4.751,5.525 4.777,5.525 C4.844,5.444 4.911,5.365 4.977,5.285 C5.004,5.285 5.030,5.285 5.057,5.285 C5.110,5.218 5.163,5.151 5.217,5.084 C5.243,5.084 5.270,5.084 5.297,5.084 C5.336,5.031 5.376,4.978 5.416,4.924 C5.443,4.924 5.470,4.924 5.496,4.924 C5.523,4.884 5.550,4.845 5.576,4.804 C5.603,4.804 5.629,4.804 5.656,4.804 C5.683,4.765 5.709,4.724 5.736,4.685 C5.763,4.685 5.789,4.685 5.816,4.685 C5.829,4.658 5.842,4.631 5.856,4.605 C5.882,4.605 5.909,4.605 5.936,4.605 C5.962,4.565 5.989,4.525 6.015,4.485 C6.042,4.485 6.069,4.485 6.095,4.485 C6.109,4.458 6.122,4.431 6.135,4.404 C6.162,4.404 6.189,4.404 6.215,4.404 C6.228,4.378 6.242,4.351 6.255,4.325 C6.282,4.325 6.308,4.325 6.335,4.325 C6.348,4.298 6.362,4.271 6.375,4.245 C6.401,4.245 6.428,4.245 6.455,4.245 C6.468,4.218 6.481,4.191 6.495,4.165 C6.548,4.151 6.601,4.138 6.654,4.125 C6.668,4.098 6.681,4.071 6.694,4.045 C6.734,4.031 6.774,4.018 6.814,4.004 C6.814,3.991 6.814,3.978 6.814,3.965 C6.841,3.965 6.867,3.965 6.894,3.965 C6.894,3.951 6.894,3.938 6.894,3.925 C6.921,3.925 6.947,3.925 6.974,3.925 C6.974,3.911 6.974,3.898 6.974,3.884 C7.000,3.884 7.027,3.884 7.054,3.884 C7.067,3.858 7.080,3.831 7.094,3.805 C7.120,3.805 7.147,3.805 7.174,3.805 C7.174,3.792 7.174,3.778 7.174,3.765 C7.200,3.765 7.227,3.765 7.253,3.765 C7.253,3.751 7.253,3.738 7.253,3.724 C7.280,3.724 7.307,3.724 7.333,3.724 C7.333,3.711 7.333,3.698 7.333,3.685 C7.360,3.685 7.387,3.685 7.413,3.685 C7.426,3.658 7.440,3.631 7.453,3.605 C7.480,3.605 7.506,3.605 7.533,3.605 C7.533,3.591 7.533,3.578 7.533,3.564 C7.613,3.538 7.693,3.511 7.773,3.484 C7.773,3.471 7.773,3.458 7.773,3.445 C7.852,3.418 7.932,3.391 8.012,3.364 C8.012,3.351 8.012,3.337 8.012,3.324 C8.052,3.324 8.092,3.324 8.132,3.324 C8.132,3.311 8.132,3.298 8.132,3.284 C8.159,3.284 8.185,3.284 8.212,3.284 C8.212,3.271 8.212,3.258 8.212,3.244 C8.292,3.218 8.372,3.191 8.451,3.164 C8.451,3.151 8.451,3.138 8.451,3.124 C8.491,3.124 8.531,3.124 8.571,3.124 C8.571,3.111 8.571,3.097 8.571,3.084 C8.598,3.084 8.624,3.084 8.651,3.084 C8.651,3.071 8.651,3.058 8.651,3.044 C8.691,3.044 8.731,3.044 8.771,3.044 C8.771,3.031 8.771,3.018 8.771,3.004 C8.798,3.004 8.824,3.004 8.851,3.004 C8.851,2.991 8.851,2.977 8.851,2.964 C8.891,2.964 8.931,2.964 8.971,2.964 C8.971,2.951 8.971,2.938 8.971,2.924 C8.997,2.924 9.024,2.924 9.050,2.924 C9.050,2.911 9.050,2.898 9.050,2.885 C9.170,2.858 9.290,2.831 9.410,2.804 C9.410,2.791 9.410,2.778 9.410,2.764 C9.437,2.764 9.463,2.764 9.490,2.764 C9.490,2.751 9.490,2.738 9.490,2.724 C9.583,2.711 9.676,2.698 9.769,2.684 C9.769,2.671 9.769,2.657 9.769,2.644 C9.809,2.644 9.849,2.644 9.889,2.644 C9.889,2.631 9.889,2.618 9.889,2.604 C9.929,2.604 9.969,2.604 10.009,2.604 C10.009,2.591 10.009,2.577 10.009,2.564 C10.049,2.564 10.089,2.564 10.129,2.564 C10.129,2.551 10.129,2.538 10.129,2.524 C10.235,2.511 10.342,2.498 10.448,2.484 C10.448,2.471 10.448,2.457 10.448,2.444 C10.501,2.444 10.555,2.444 10.608,2.444 C10.608,2.431 10.608,2.418 10.608,2.404 C10.661,2.404 10.714,2.404 10.768,2.404 C10.768,2.391 10.768,2.378 10.768,2.365 C10.821,2.365 10.874,2.365 10.927,2.365 C10.927,2.351 10.927,2.338 10.927,2.324 C10.994,2.324 11.061,2.324 11.127,2.324 C11.127,2.311 11.127,2.297 11.127,2.284 C11.260,2.271 11.393,2.258 11.526,2.244 C11.526,2.231 11.526,2.218 11.526,2.204 C11.606,2.204 11.686,2.204 11.766,2.204 C11.766,2.191 11.766,2.178 11.766,2.164 C11.859,2.164 11.952,2.164 12.046,2.164 C12.046,2.151 12.046,2.138 12.046,2.124 C12.139,2.124 12.232,2.124 12.325,2.124 C12.325,2.111 12.325,2.098 12.325,2.084 C12.445,2.084 12.565,2.084 12.685,2.084 C12.685,2.071 12.685,2.058 12.685,2.044 C12.871,2.044 13.057,2.044 13.244,2.044 C13.551,1.959 14.454,1.957 14.761,2.044 C14.948,2.044 15.134,2.044 15.320,2.044 C15.320,2.058 15.320,2.071 15.320,2.084 C15.440,2.084 15.560,2.084 15.680,2.084 C15.680,2.098 15.680,2.111 15.680,2.124 C15.773,2.124 15.866,2.124 15.959,2.124 C15.959,2.138 15.959,2.151 15.959,2.164 C16.052,2.164 16.146,2.164 16.239,2.164 C16.239,2.178 16.239,2.191 16.239,2.204 C16.385,2.218 16.532,2.231 16.678,2.244 C16.678,2.258 16.678,2.271 16.678,2.284 C16.811,2.297 16.944,2.311 17.077,2.324 C17.077,2.338 17.077,2.351 17.077,2.365 C17.184,2.378 17.290,2.391 17.397,2.404 C17.397,2.418 17.397,2.431 17.397,2.444 C17.450,2.444 17.503,2.444 17.557,2.444 C17.557,2.457 17.557,2.471 17.557,2.484 C17.610,2.484 17.663,2.484 17.716,2.484 C17.716,2.498 17.716,2.511 17.716,2.524 C17.770,2.524 17.823,2.524 17.876,2.524 C17.876,2.538 17.876,2.551 17.876,2.564 C17.916,2.564 17.956,2.564 17.996,2.564 C17.996,2.577 17.996,2.591 17.996,2.604 C18.036,2.604 18.076,2.604 18.116,2.604 C18.116,2.618 18.116,2.631 18.116,2.644 C18.156,2.644 18.196,2.644 18.236,2.644 C18.236,2.657 18.236,2.671 18.236,2.684 C18.289,2.684 18.342,2.684 18.395,2.684 C18.395,2.698 18.395,2.711 18.395,2.724 C18.435,2.724 18.475,2.724 18.515,2.724 C18.515,2.738 18.515,2.751 18.515,2.764 C18.582,2.778 18.648,2.791 18.715,2.804 C18.715,2.817 18.715,2.831 18.715,2.844 C18.672,2.872 18.531,3.043 18.515,3.084 C18.515,3.151 18.515,3.218 18.515,3.284 C18.502,3.284 18.488,3.284 18.475,3.284 C18.475,3.337 18.475,3.391 18.475,3.445 C18.462,3.445 18.448,3.445 18.435,3.445 C18.435,3.498 18.435,3.551 18.435,3.605 C18.422,3.605 18.409,3.605 18.395,3.605 C18.395,3.658 18.395,3.711 18.395,3.765 C18.382,3.765 18.369,3.765 18.355,3.765 C18.355,3.818 18.355,3.871 18.355,3.925 C18.342,3.925 18.329,3.925 18.315,3.925 C18.315,4.644 18.315,5.365 18.315,6.085 ZM21.750,12.726 C21.790,12.859 21.830,12.992 21.870,13.126 C21.883,13.126 21.896,13.126 21.909,13.126 C21.909,13.165 21.909,13.206 21.909,13.246 C21.923,13.246 21.936,13.246 21.949,13.246 C21.949,13.286 21.949,13.325 21.949,13.365 C21.963,13.365 21.976,13.365 21.989,13.365 C21.989,13.406 21.989,13.446 21.989,13.485 C22.003,13.485 22.016,13.485 22.029,13.485 C22.043,13.579 22.056,13.672 22.069,13.766 C22.083,13.766 22.096,13.766 22.109,13.766 C22.189,14.179 22.269,14.592 22.349,15.006 C22.349,15.152 22.349,15.299 22.349,15.446 C22.362,15.446 22.375,15.446 22.389,15.446 C22.389,15.646 22.389,15.846 22.389,16.046 C22.389,16.572 22.353,17.115 22.229,17.526 C22.216,17.659 22.202,17.793 22.189,17.926 C22.176,17.926 22.162,17.926 22.149,17.926 C22.136,18.033 22.122,18.140 22.109,18.246 C22.096,18.246 22.083,18.246 22.069,18.246 C22.056,18.340 22.043,18.433 22.029,18.526 C22.016,18.526 22.003,18.526 21.989,18.526 C21.989,18.566 21.989,18.606 21.989,18.646 C21.976,18.646 21.963,18.646 21.949,18.646 C21.949,18.686 21.949,18.726 21.949,18.766 C21.936,18.766 21.923,18.766 21.909,18.766 C21.909,18.806 21.909,18.846 21.909,18.886 C21.896,18.886 21.883,18.886 21.870,18.886 C21.870,18.913 21.870,18.940 21.870,18.966 C21.856,18.966 21.843,18.966 21.830,18.966 C21.830,19.006 21.830,19.046 21.830,19.086 C21.816,19.086 21.803,19.086 21.790,19.086 C21.790,19.113 21.790,19.140 21.790,19.166 C21.776,19.166 21.763,19.166 21.750,19.166 C21.750,19.206 21.750,19.246 21.750,19.286 C21.736,19.286 21.723,19.286 21.710,19.286 C21.696,19.340 21.683,19.393 21.670,19.446 C21.657,19.446 21.643,19.446 21.630,19.446 C21.630,19.473 21.630,19.500 21.630,19.526 C21.617,19.526 21.603,19.526 21.590,19.526 C21.590,19.566 21.590,19.606 21.590,19.646 C21.577,19.646 21.563,19.646 21.550,19.646 C21.537,19.700 21.523,19.753 21.510,19.806 C21.497,19.806 21.484,19.806 21.470,19.806 C21.457,19.860 21.444,19.913 21.430,19.966 C21.404,19.980 21.377,19.993 21.350,20.006 C21.324,20.087 21.297,20.166 21.270,20.247 C21.244,20.260 21.217,20.273 21.191,20.286 C21.177,20.340 21.164,20.393 21.151,20.446 C21.137,20.446 21.124,20.446 21.111,20.446 C21.097,20.487 21.084,20.526 21.071,20.566 C21.044,20.580 21.018,20.593 20.991,20.607 C20.991,20.633 20.991,20.660 20.991,20.686 C20.978,20.686 20.964,20.686 20.951,20.686 C20.938,20.726 20.924,20.767 20.911,20.807 C20.885,20.820 20.858,20.833 20.831,20.846 C20.831,20.873 20.831,20.900 20.831,20.927 C20.791,20.953 20.751,20.980 20.711,21.006 C20.711,21.033 20.711,21.060 20.711,21.086 C20.671,21.113 20.632,21.140 20.592,21.166 C20.592,21.193 20.592,21.220 20.592,21.246 C20.525,21.300 20.459,21.353 20.392,21.407 C20.392,21.433 20.392,21.460 20.392,21.487 C20.259,21.606 20.126,21.727 19.993,21.847 C19.820,22.033 19.646,22.220 19.473,22.406 C19.447,22.406 19.420,22.406 19.394,22.406 C19.340,22.474 19.287,22.540 19.234,22.607 C19.207,22.607 19.181,22.607 19.154,22.607 C19.127,22.647 19.101,22.687 19.074,22.727 C19.047,22.727 19.021,22.727 18.994,22.727 C18.968,22.767 18.941,22.807 18.914,22.847 C18.888,22.847 18.861,22.847 18.835,22.847 C18.821,22.874 18.808,22.900 18.795,22.927 C18.755,22.940 18.715,22.953 18.675,22.966 C18.675,22.980 18.675,22.993 18.675,23.007 C18.648,23.007 18.622,23.007 18.595,23.007 C18.582,23.033 18.568,23.060 18.555,23.087 C18.515,23.100 18.475,23.113 18.435,23.127 C18.435,23.140 18.435,23.153 18.435,23.167 C18.382,23.180 18.329,23.193 18.275,23.207 C18.262,23.233 18.249,23.260 18.236,23.287 C18.156,23.313 18.076,23.340 17.996,23.367 C17.983,23.394 17.969,23.420 17.956,23.447 C17.903,23.460 17.849,23.473 17.796,23.486 C17.796,23.500 17.796,23.513 17.796,23.527 C17.743,23.540 17.690,23.553 17.636,23.567 C17.636,23.580 17.636,23.593 17.636,23.607 C17.597,23.607 17.557,23.607 17.517,23.607 C17.517,23.620 17.517,23.633 17.517,23.647 C17.490,23.647 17.463,23.647 17.437,23.647 C17.437,23.660 17.437,23.673 17.437,23.686 C17.383,23.700 17.330,23.713 17.277,23.727 C17.277,23.740 17.277,23.753 17.277,23.767 C17.237,23.767 17.197,23.767 17.157,23.767 C17.157,23.780 17.157,23.793 17.157,23.807 C17.131,23.807 17.104,23.807 17.077,23.807 C17.077,23.820 17.077,23.833 17.077,23.846 C17.011,23.860 16.944,23.873 16.878,23.887 C16.878,23.900 16.878,23.914 16.878,23.927 C16.838,23.927 16.798,23.927 16.758,23.927 C16.758,23.940 16.758,23.954 16.758,23.967 C16.718,23.967 16.678,23.967 16.638,23.967 C16.638,23.980 16.638,23.993 16.638,24.007 C16.598,24.007 16.558,24.007 16.518,24.007 C16.518,24.020 16.518,24.034 16.518,24.047 C16.425,24.060 16.332,24.074 16.239,24.087 C16.239,24.100 16.239,24.114 16.239,24.127 C16.132,24.140 16.026,24.154 15.919,24.167 C15.919,24.180 15.919,24.194 15.919,24.207 C15.853,24.207 15.786,24.207 15.720,24.207 C15.720,24.220 15.720,24.233 15.720,24.247 C15.653,24.247 15.586,24.247 15.520,24.247 C15.520,24.260 15.520,24.274 15.520,24.287 C15.440,24.287 15.360,24.287 15.280,24.287 C15.280,24.300 15.280,24.314 15.280,24.327 C15.187,24.327 15.094,24.327 15.001,24.327 C15.001,24.340 15.001,24.354 15.001,24.367 C14.854,24.367 14.708,24.367 14.561,24.367 C14.125,24.489 13.095,24.395 12.725,24.287 C12.645,24.287 12.565,24.287 12.485,24.287 C12.032,24.167 11.580,24.047 11.127,23.927 C11.127,23.914 11.127,23.900 11.127,23.887 C11.101,23.887 11.074,23.887 11.047,23.887 C11.047,23.873 11.047,23.860 11.047,23.846 C11.007,23.846 10.967,23.846 10.927,23.846 C10.927,23.833 10.927,23.820 10.927,23.807 C10.901,23.807 10.874,23.807 10.848,23.807 C10.848,23.793 10.848,23.780 10.848,23.767 C10.808,23.767 10.768,23.767 10.728,23.767 C10.728,23.753 10.728,23.740 10.728,23.727 C10.674,23.713 10.621,23.700 10.568,23.686 C10.568,23.673 10.568,23.660 10.568,23.647 C10.541,23.647 10.515,23.647 10.488,23.647 C10.488,23.633 10.488,23.620 10.488,23.607 C10.368,23.567 10.248,23.527 10.129,23.486 C10.115,23.460 10.102,23.433 10.089,23.407 C10.062,23.407 10.036,23.407 10.009,23.407 C10.009,23.394 10.009,23.380 10.009,23.367 C9.982,23.367 9.956,23.367 9.929,23.367 C9.929,23.353 9.929,23.340 9.929,23.326 C9.902,23.326 9.876,23.326 9.849,23.326 C9.849,23.313 9.849,23.300 9.849,23.287 C9.823,23.287 9.796,23.287 9.769,23.287 C9.756,23.260 9.743,23.233 9.729,23.207 C9.676,23.193 9.623,23.180 9.570,23.167 C9.556,23.140 9.543,23.113 9.530,23.087 C9.503,23.087 9.476,23.087 9.450,23.087 C9.437,23.060 9.423,23.033 9.410,23.007 C9.383,23.007 9.357,23.007 9.330,23.007 C9.330,22.993 9.330,22.980 9.330,22.966 C9.290,22.953 9.250,22.940 9.210,22.927 C9.197,22.900 9.184,22.874 9.170,22.847 C9.144,22.847 9.117,22.847 9.090,22.847 C9.064,22.807 9.037,22.767 9.011,22.727 C8.984,22.727 8.957,22.727 8.931,22.727 C8.904,22.687 8.877,22.647 8.851,22.607 C8.824,22.607 8.798,22.607 8.771,22.607 C8.718,22.540 8.664,22.474 8.611,22.406 C8.585,22.406 8.558,22.406 8.531,22.406 C8.305,22.166 8.079,21.927 7.852,21.687 C7.773,21.620 7.693,21.553 7.613,21.487 C7.613,21.460 7.613,21.433 7.613,21.407 C7.546,21.353 7.480,21.300 7.413,21.246 C7.413,21.220 7.413,21.193 7.413,21.166 C7.373,21.140 7.333,21.113 7.293,21.086 C7.293,21.060 7.293,21.033 7.293,21.006 C7.253,20.980 7.214,20.953 7.174,20.927 C7.174,20.900 7.174,20.873 7.174,20.846 C7.147,20.833 7.120,20.820 7.094,20.807 C7.094,20.780 7.094,20.753 7.094,20.726 C7.067,20.713 7.040,20.700 7.014,20.686 C7.014,20.660 7.014,20.633 7.014,20.607 C6.987,20.593 6.961,20.580 6.934,20.566 C6.934,20.540 6.934,20.513 6.934,20.487 C6.907,20.473 6.881,20.460 6.854,20.446 C6.841,20.393 6.827,20.340 6.814,20.286 C6.788,20.273 6.761,20.260 6.734,20.247 C6.734,20.220 6.734,20.193 6.734,20.166 C6.721,20.166 6.708,20.166 6.694,20.166 C6.694,20.140 6.694,20.113 6.694,20.087 C6.681,20.087 6.668,20.087 6.654,20.087 C6.654,20.060 6.654,20.033 6.654,20.006 C6.641,20.006 6.628,20.006 6.614,20.006 C6.614,19.980 6.614,19.953 6.614,19.926 C6.588,19.913 6.561,19.899 6.535,19.886 C6.495,19.766 6.455,19.646 6.415,19.526 C6.401,19.526 6.388,19.526 6.375,19.526 C6.375,19.500 6.375,19.473 6.375,19.446 C6.362,19.446 6.348,19.446 6.335,19.446 C6.322,19.393 6.308,19.340 6.295,19.286 C6.282,19.286 6.268,19.286 6.255,19.286 C6.255,19.246 6.255,19.206 6.255,19.166 C6.242,19.166 6.228,19.166 6.215,19.166 C6.215,19.140 6.215,19.113 6.215,19.086 C6.202,19.086 6.189,19.086 6.175,19.086 C6.175,19.046 6.175,19.006 6.175,18.966 C6.162,18.966 6.149,18.966 6.135,18.966 C6.135,18.940 6.135,18.913 6.135,18.886 C6.122,18.886 6.109,18.886 6.095,18.886 C6.095,18.846 6.095,18.806 6.095,18.766 C6.082,18.766 6.069,18.766 6.055,18.766 C6.055,18.726 6.055,18.686 6.055,18.646 C6.042,18.646 6.029,18.646 6.015,18.646 C6.015,18.606 6.015,18.566 6.015,18.526 C6.002,18.526 5.989,18.526 5.975,18.526 C5.975,18.473 5.975,18.420 5.975,18.366 C5.962,18.366 5.949,18.366 5.936,18.366 C5.936,18.326 5.936,18.286 5.936,18.246 C5.922,18.246 5.909,18.246 5.896,18.246 C5.816,17.833 5.736,17.419 5.656,17.006 C5.656,16.859 5.656,16.713 5.656,16.566 C5.643,16.566 5.629,16.566 5.616,16.566 C5.562,16.372 5.616,15.587 5.656,15.446 C5.656,15.299 5.656,15.152 5.656,15.006 C5.737,14.721 5.768,14.355 5.856,14.086 C5.856,14.032 5.856,13.979 5.856,13.926 C5.869,13.926 5.882,13.926 5.896,13.926 C5.896,13.872 5.896,13.819 5.896,13.766 C5.909,13.766 5.922,13.766 5.936,13.766 C5.936,13.726 5.936,13.686 5.936,13.646 C5.949,13.646 5.962,13.646 5.975,13.646 C5.975,13.592 5.975,13.539 5.975,13.485 C5.989,13.485 6.002,13.485 6.015,13.485 C6.015,13.446 6.015,13.406 6.015,13.365 C6.029,13.365 6.042,13.365 6.055,13.365 C6.055,13.325 6.055,13.286 6.055,13.246 C6.069,13.246 6.082,13.246 6.095,13.246 C6.095,13.206 6.095,13.165 6.095,13.126 C6.109,13.126 6.122,13.126 6.135,13.126 C6.135,13.099 6.135,13.072 6.135,13.046 C6.149,13.046 6.162,13.046 6.175,13.046 C6.175,13.005 6.175,12.965 6.175,12.926 C6.189,12.926 6.202,12.926 6.215,12.926 C6.215,12.899 6.215,12.872 6.215,12.846 C6.228,12.846 6.242,12.846 6.255,12.846 C6.255,12.805 6.255,12.765 6.255,12.726 C6.268,12.726 6.282,12.726 6.295,12.726 C6.308,12.672 6.322,12.619 6.335,12.565 C6.348,12.565 6.362,12.565 6.375,12.565 C6.375,12.539 6.375,12.512 6.375,12.486 C6.388,12.486 6.401,12.486 6.415,12.486 C6.415,12.445 6.415,12.405 6.415,12.365 C6.428,12.365 6.441,12.365 6.455,12.365 C6.468,12.312 6.481,12.258 6.495,12.205 C6.508,12.205 6.521,12.205 6.535,12.205 C6.535,12.178 6.535,12.152 6.535,12.125 C6.561,12.112 6.588,12.099 6.614,12.085 C6.614,12.059 6.614,12.032 6.614,12.005 C6.628,12.005 6.641,12.005 6.654,12.005 C6.654,11.979 6.654,11.952 6.654,11.925 C6.668,11.925 6.681,11.925 6.694,11.925 C6.694,11.898 6.694,11.872 6.694,11.845 C6.708,11.845 6.721,11.845 6.734,11.845 C6.734,11.819 6.734,11.792 6.734,11.765 C6.761,11.752 6.788,11.739 6.814,11.725 C6.827,11.672 6.841,11.619 6.854,11.565 C6.867,11.565 6.881,11.565 6.894,11.565 C6.907,11.525 6.921,11.485 6.934,11.446 C6.961,11.432 6.987,11.419 7.014,11.405 C7.014,11.378 7.014,11.352 7.014,11.326 C7.027,11.326 7.040,11.326 7.054,11.326 C7.067,11.285 7.080,11.245 7.094,11.205 C7.120,11.192 7.147,11.179 7.174,11.165 C7.174,11.139 7.174,11.112 7.174,11.085 C7.214,11.059 7.253,11.032 7.293,11.005 C7.293,10.979 7.293,10.952 7.293,10.925 C7.333,10.899 7.373,10.872 7.413,10.845 C7.413,10.819 7.413,10.792 7.413,10.765 C7.480,10.712 7.546,10.659 7.613,10.605 C7.613,10.578 7.613,10.552 7.613,10.525 C7.773,10.379 7.932,10.232 8.092,10.085 C8.238,9.925 8.385,9.765 8.531,9.605 C8.558,9.605 8.585,9.605 8.611,9.605 C8.664,9.539 8.718,9.472 8.771,9.405 C8.798,9.405 8.824,9.405 8.851,9.405 C8.877,9.365 8.904,9.325 8.931,9.285 C8.957,9.285 8.984,9.285 9.011,9.285 C9.037,9.245 9.064,9.205 9.090,9.165 C9.117,9.165 9.144,9.165 9.170,9.165 C9.184,9.138 9.197,9.111 9.210,9.085 C9.250,9.072 9.290,9.058 9.330,9.045 C9.330,9.032 9.330,9.018 9.330,9.005 C9.357,9.005 9.383,9.005 9.410,9.005 C9.423,8.978 9.437,8.952 9.450,8.925 C9.490,8.912 9.530,8.898 9.570,8.885 C9.570,8.872 9.570,8.858 9.570,8.845 C9.623,8.832 9.676,8.818 9.729,8.805 C9.743,8.778 9.756,8.751 9.769,8.725 C9.849,8.698 9.929,8.672 10.009,8.645 C10.009,8.631 10.009,8.618 10.009,8.605 C10.036,8.605 10.062,8.605 10.089,8.605 C10.102,8.578 10.115,8.552 10.129,8.525 C10.248,8.485 10.368,8.445 10.488,8.405 C10.488,8.392 10.488,8.378 10.488,8.365 C10.515,8.365 10.541,8.365 10.568,8.365 C10.568,8.352 10.568,8.338 10.568,8.325 C10.621,8.312 10.674,8.298 10.728,8.285 C10.728,8.272 10.728,8.258 10.728,8.245 C10.768,8.245 10.808,8.245 10.848,8.245 C10.848,8.231 10.848,8.218 10.848,8.205 C10.874,8.205 10.901,8.205 10.927,8.205 C10.927,8.192 10.927,8.179 10.927,8.165 C10.967,8.165 11.007,8.165 11.047,8.165 C11.047,8.152 11.047,8.138 11.047,8.125 C11.074,8.125 11.101,8.125 11.127,8.125 C11.127,8.111 11.127,8.098 11.127,8.085 C11.167,8.085 11.207,8.085 11.247,8.085 C11.247,8.072 11.247,8.058 11.247,8.045 C11.287,8.045 11.327,8.045 11.367,8.045 C11.367,8.032 11.367,8.018 11.367,8.005 C11.407,8.005 11.447,8.005 11.486,8.005 C11.486,7.992 11.486,7.978 11.486,7.965 C11.580,7.951 11.673,7.938 11.766,7.925 C11.766,7.912 11.766,7.898 11.766,7.885 C11.819,7.885 11.873,7.885 11.926,7.885 C11.926,7.871 11.926,7.858 11.926,7.845 C11.979,7.845 12.032,7.845 12.086,7.845 C12.086,7.832 12.086,7.819 12.086,7.805 C12.152,7.805 12.219,7.805 12.285,7.805 C12.285,7.792 12.285,7.778 12.285,7.765 C12.352,7.765 12.418,7.765 12.485,7.765 C12.485,7.752 12.485,7.739 12.485,7.725 C12.565,7.725 12.645,7.725 12.725,7.725 C12.725,7.712 12.725,7.698 12.725,7.685 C12.818,7.685 12.911,7.685 13.004,7.685 C13.004,7.672 13.004,7.658 13.004,7.645 C13.150,7.645 13.297,7.645 13.443,7.645 C13.584,7.606 14.369,7.551 14.561,7.605 C14.561,7.618 14.561,7.632 14.561,7.645 C14.708,7.645 14.854,7.645 15.001,7.645 C15.001,7.658 15.001,7.672 15.001,7.685 C15.094,7.685 15.187,7.685 15.280,7.685 C15.280,7.698 15.280,7.712 15.280,7.725 C15.360,7.725 15.440,7.725 15.520,7.725 C15.520,7.739 15.520,7.752 15.520,7.765 C15.586,7.765 15.653,7.765 15.720,7.765 C15.720,7.778 15.720,7.792 15.720,7.805 C15.839,7.819 15.959,7.832 16.079,7.845 C16.079,7.858 16.079,7.871 16.079,7.885 C16.132,7.885 16.185,7.885 16.239,7.885 C16.239,7.898 16.239,7.912 16.239,7.925 C16.332,7.938 16.425,7.951 16.518,7.965 C16.518,7.978 16.518,7.992 16.518,8.005 C16.558,8.005 16.598,8.005 16.638,8.005 C16.638,8.018 16.638,8.032 16.638,8.045 C16.678,8.045 16.718,8.045 16.758,8.045 C16.758,8.058 16.758,8.072 16.758,8.085 C16.798,8.085 16.838,8.085 16.878,8.085 C16.878,8.098 16.878,8.111 16.878,8.125 C16.904,8.125 16.931,8.125 16.958,8.125 C16.958,8.138 16.958,8.152 16.958,8.165 C17.105,8.229 17.258,8.214 17.357,8.325 C17.344,8.325 17.330,8.325 17.317,8.325 C17.256,8.432 17.160,8.482 17.077,8.565 C16.918,8.725 16.758,8.885 16.598,9.045 C16.452,9.205 16.305,9.365 16.159,9.525 C16.092,9.579 16.026,9.632 15.959,9.685 C15.959,9.712 15.959,9.739 15.959,9.765 C15.919,9.778 15.879,9.792 15.839,9.805 C15.826,9.832 15.813,9.858 15.799,9.885 C15.733,9.938 15.666,9.992 15.600,10.045 C15.533,10.139 15.467,10.232 15.400,10.325 C15.374,10.325 15.347,10.325 15.320,10.325 C15.160,10.499 15.001,10.672 14.841,10.845 C14.708,10.845 14.575,10.845 14.442,10.845 C14.392,10.800 13.692,10.768 13.563,10.805 C13.563,10.819 13.563,10.832 13.563,10.845 C13.443,10.845 13.324,10.845 13.204,10.845 C13.204,10.858 13.204,10.872 13.204,10.885 C13.137,10.885 13.071,10.885 13.004,10.885 C13.004,10.899 13.004,10.912 13.004,10.925 C12.937,10.925 12.871,10.925 12.804,10.925 C12.804,10.939 12.804,10.952 12.804,10.965 C12.751,10.965 12.698,10.965 12.645,10.965 C12.645,10.979 12.645,10.992 12.645,11.005 C12.605,11.005 12.565,11.005 12.525,11.005 C12.525,11.018 12.525,11.032 12.525,11.045 C12.472,11.045 12.418,11.045 12.365,11.045 C12.365,11.059 12.365,11.072 12.365,11.085 C12.338,11.085 12.312,11.085 12.285,11.085 C12.285,11.098 12.285,11.112 12.285,11.125 C12.205,11.139 12.125,11.152 12.046,11.165 C12.046,11.179 12.046,11.192 12.046,11.205 C11.992,11.219 11.939,11.232 11.886,11.245 C11.886,11.258 11.886,11.272 11.886,11.285 C11.846,11.285 11.806,11.285 11.766,11.285 C11.766,11.299 11.766,11.312 11.766,11.326 C11.739,11.326 11.713,11.326 11.686,11.326 C11.686,11.339 11.686,11.352 11.686,11.365 C11.660,11.365 11.633,11.365 11.606,11.365 C11.593,11.392 11.580,11.419 11.566,11.446 C11.487,11.472 11.407,11.499 11.327,11.525 C11.313,11.552 11.300,11.579 11.287,11.605 C11.234,11.619 11.180,11.632 11.127,11.645 C11.101,11.686 11.074,11.725 11.047,11.765 C11.021,11.765 10.994,11.765 10.967,11.765 C10.954,11.792 10.941,11.819 10.927,11.845 C10.901,11.845 10.874,11.845 10.848,11.845 C10.808,11.898 10.768,11.952 10.728,12.005 C9.981,12.544 9.474,13.345 9.090,14.245 C9.077,14.339 9.064,14.432 9.050,14.526 C9.037,14.526 9.024,14.526 9.011,14.526 C9.011,14.566 9.011,14.606 9.011,14.646 C8.997,14.646 8.984,14.646 8.971,14.646 C8.971,14.699 8.971,14.752 8.971,14.806 C8.957,14.806 8.944,14.806 8.931,14.806 C8.931,14.872 8.931,14.939 8.931,15.006 C8.767,15.546 8.764,16.466 8.931,17.006 C8.944,17.126 8.957,17.246 8.971,17.366 C8.984,17.366 8.997,17.366 9.011,17.366 C9.011,17.406 9.011,17.446 9.011,17.486 C9.024,17.486 9.037,17.486 9.050,17.486 C9.064,17.579 9.077,17.673 9.090,17.766 C9.104,17.766 9.117,17.766 9.130,17.766 C9.130,17.793 9.130,17.819 9.130,17.846 C9.144,17.846 9.157,17.846 9.170,17.846 C9.170,17.886 9.170,17.926 9.170,17.966 C9.184,17.966 9.197,17.966 9.210,17.966 C9.223,18.019 9.237,18.073 9.250,18.126 C9.263,18.126 9.277,18.126 9.290,18.126 C9.330,18.246 9.370,18.366 9.410,18.486 C9.437,18.500 9.463,18.513 9.490,18.526 C9.503,18.579 9.516,18.633 9.530,18.686 C9.556,18.700 9.583,18.713 9.610,18.726 C9.623,18.780 9.636,18.833 9.649,18.886 C9.689,18.913 9.729,18.940 9.769,18.966 C9.783,19.006 9.796,19.046 9.809,19.086 C9.823,19.086 9.836,19.086 9.849,19.086 C9.849,19.113 9.849,19.140 9.849,19.166 C9.902,19.206 9.956,19.246 10.009,19.286 C10.659,20.192 11.621,20.712 12.804,21.086 C12.871,21.086 12.937,21.086 13.004,21.086 C13.004,21.100 13.004,21.113 13.004,21.127 C13.071,21.127 13.137,21.127 13.204,21.127 C13.204,21.140 13.204,21.153 13.204,21.166 C13.324,21.166 13.443,21.166 13.563,21.166 C13.563,21.180 13.563,21.193 13.563,21.206 C13.759,21.261 14.303,21.206 14.442,21.166 C14.561,21.166 14.681,21.166 14.801,21.166 C14.801,21.153 14.801,21.140 14.801,21.127 C14.868,21.127 14.934,21.127 15.001,21.127 C15.001,21.113 15.001,21.100 15.001,21.086 C15.067,21.086 15.134,21.086 15.200,21.086 C15.200,21.073 15.200,21.060 15.200,21.047 C15.254,21.047 15.307,21.047 15.360,21.047 C15.360,21.033 15.360,21.020 15.360,21.006 C15.400,21.006 15.440,21.006 15.480,21.006 C15.480,20.993 15.480,20.980 15.480,20.967 C15.533,20.967 15.586,20.967 15.640,20.967 C15.640,20.953 15.640,20.940 15.640,20.927 C15.666,20.927 15.693,20.927 15.720,20.927 C15.720,20.913 15.720,20.900 15.720,20.887 C15.799,20.873 15.879,20.860 15.959,20.846 C15.959,20.833 15.959,20.820 15.959,20.807 C16.012,20.793 16.066,20.780 16.119,20.767 C16.119,20.753 16.119,20.740 16.119,20.726 C16.239,20.686 16.359,20.646 16.478,20.607 C16.492,20.580 16.505,20.553 16.518,20.526 C16.572,20.513 16.625,20.500 16.678,20.487 C16.691,20.460 16.705,20.433 16.718,20.407 C16.745,20.407 16.771,20.407 16.798,20.407 C16.798,20.393 16.798,20.380 16.798,20.366 C16.824,20.366 16.851,20.366 16.878,20.366 C16.904,20.326 16.931,20.286 16.958,20.247 C16.984,20.247 17.011,20.247 17.037,20.247 C17.051,20.220 17.064,20.193 17.077,20.166 C17.104,20.166 17.131,20.166 17.157,20.166 C17.197,20.113 17.237,20.060 17.277,20.006 C17.304,20.006 17.330,20.006 17.357,20.006 C17.477,19.873 17.597,19.740 17.716,19.606 C17.810,19.526 17.903,19.446 17.996,19.366 C17.996,19.340 17.996,19.313 17.996,19.286 C18.049,19.246 18.102,19.206 18.156,19.166 C18.156,19.140 18.156,19.113 18.156,19.086 C18.182,19.073 18.209,19.060 18.236,19.046 C18.236,19.019 18.236,18.993 18.236,18.966 C18.275,18.940 18.315,18.913 18.355,18.886 C18.355,18.860 18.355,18.833 18.355,18.806 C18.369,18.806 18.382,18.806 18.395,18.806 C18.395,18.780 18.395,18.753 18.395,18.726 C18.422,18.713 18.448,18.700 18.475,18.686 C18.488,18.633 18.502,18.579 18.515,18.526 C18.542,18.513 18.568,18.500 18.595,18.486 C18.595,18.459 18.595,18.433 18.595,18.406 C18.608,18.406 18.622,18.406 18.635,18.406 C18.648,18.353 18.661,18.299 18.675,18.246 C18.688,18.246 18.701,18.246 18.715,18.246 C18.715,18.206 18.715,18.166 18.715,18.126 C18.728,18.126 18.741,18.126 18.755,18.126 C18.768,18.073 18.781,18.019 18.795,17.966 C18.808,17.966 18.821,17.966 18.835,17.966 C18.848,17.899 18.861,17.833 18.874,17.766 C18.888,17.766 18.901,17.766 18.914,17.766 C18.928,17.673 18.941,17.579 18.954,17.486 C18.968,17.486 18.981,17.486 18.994,17.486 C18.994,17.446 18.994,17.406 18.994,17.366 C19.008,17.366 19.021,17.366 19.034,17.366 C19.034,17.313 19.034,17.260 19.034,17.206 C19.047,17.206 19.061,17.206 19.074,17.206 C19.074,17.139 19.074,17.073 19.074,17.006 C19.087,17.006 19.101,17.006 19.114,17.006 C19.114,16.940 19.114,16.873 19.114,16.806 C19.127,16.806 19.141,16.806 19.154,16.806 C19.154,16.686 19.154,16.566 19.154,16.446 C19.257,16.077 19.154,15.600 19.154,15.206 C19.247,15.139 19.340,15.072 19.434,15.006 C19.447,14.966 19.460,14.926 19.473,14.886 C19.633,14.752 19.793,14.619 19.953,14.486 C19.953,14.459 19.953,14.432 19.953,14.405 C19.966,14.405 19.979,14.405 19.993,14.405 C20.046,14.339 20.099,14.272 20.152,14.206 C20.179,14.206 20.206,14.206 20.232,14.206 C20.246,14.179 20.259,14.152 20.272,14.126 C20.285,14.126 20.299,14.126 20.312,14.126 C20.432,13.979 20.552,13.832 20.671,13.686 C20.698,13.686 20.725,13.686 20.751,13.686 C20.778,13.646 20.805,13.606 20.831,13.566 C20.858,13.552 20.885,13.539 20.911,13.526 C20.911,13.499 20.911,13.472 20.911,13.446 C20.991,13.379 21.071,13.312 21.151,13.246 C21.164,13.219 21.177,13.192 21.191,13.165 C21.217,13.165 21.244,13.165 21.270,13.165 C21.297,13.126 21.324,13.085 21.350,13.046 C21.377,13.032 21.404,13.019 21.430,13.005 C21.430,12.979 21.430,12.952 21.430,12.926 C21.444,12.926 21.457,12.926 21.470,12.926 C21.523,12.859 21.577,12.792 21.630,12.726 C21.670,12.726 21.710,12.726 21.750,12.726 Z"/>
</svg>